<?xml version="1.0" encoding="utf-8"?>
<!-- Generator: Adobe Illustrator 23.0.6, SVG Export Plug-In . SVG Version: 6.00 Build 0)  -->
<svg version="1.1" id="Layer_1" xmlns="http://www.w3.org/2000/svg" xmlns:xlink="http://www.w3.org/1999/xlink" x="0px" y="0px"
	 viewBox="0 0 64 64" style="enable-background:new 0 0 64 64;" xml:space="preserve">
<style type="text/css">
	.st0{fill:#F9C995;}
	.st1{fill:#C52026;}
	.st2{fill:#DDDDDD;}
	.st3{fill:#787878;}
	.st4{fill:#FDC88D;}
	.st5{fill:#2D2D2D;}
	.st6{fill:#47C8F5;}
	.st7{fill:none;}
	.st8{fill:#BCBCBC;}
	.st9{fill:#606161;}
	.st10{fill:#F37B87;}
	.st11{fill:#FFC613;}
	.st12{fill:#FFFFFF;}
	.st13{fill:#E2A538;}
	.st14{fill:#FAE7D0;}
	.st15{fill:#F3AE3D;}
	.st16{fill:#81C341;}
	.st17{fill:none;stroke:#000000;stroke-width:2;stroke-linecap:round;stroke-linejoin:round;stroke-miterlimit:10;}
	.st18{opacity:0.3;}
	.st19{opacity:0.3;fill:#FFFFFF;}
</style>
<g id="Vector">
	<g>
		<path class="st10" d="M57.49,35.38V53.9c0,3.06-2.49,5.55-5.55,5.55H12.06c-3.06,0-5.55-2.49-5.55-5.55V35.38
			c0-1.16,0.36-2.24,0.97-3.14l7,5.15l17.6,12.98l16.79-13.11l7.17-5.6C56.95,32.64,57.49,33.95,57.49,35.38z"/>
		<path class="st10" d="M56.04,31.66l-7.17,5.6v-7.43h3.06C53.56,29.83,55.04,30.53,56.04,31.66z"/>
		<path class="st10" d="M14.48,29.83v7.56l-7-5.15c1.01-1.45,2.68-2.41,4.58-2.41H14.48z"/>
		<path class="st1" d="M45.24,20.08c0,0.34-0.02,0.68-0.08,1c0.01,0.05,0,0.1-0.02,0.14c-0.07,0.39-0.18,0.78-0.29,1.18
			c-1.49,4.88-6.23,10.17-11.86,15.63c-10.01-9.04-14.14-14.32-14.16-16.95h0.01c-0.06-0.32-0.08-0.66-0.08-1
			c0-3.93,3.19-7.12,7.12-7.12c2.61,0,4.9,1.4,6.13,3.51c1.23-2.1,3.52-3.51,6.13-3.51C42.06,12.96,45.24,16.15,45.24,20.08z"/>
	</g>
</g>
<g id="Line">
	<g>
		<path class="st17" d="M57.49,35.38V53.9c0,3.06-2.49,5.55-5.55,5.55H12.06c-3.06,0-5.55-2.49-5.55-5.55V35.38
			c0-1.16,0.36-2.24,0.97-3.14l7,5.15l17.6,12.98l16.79-13.11l7.17-5.6C56.95,32.64,57.49,33.95,57.49,35.38z"/>
		<path class="st17" d="M56.04,31.66l-7.17,5.6v-7.43h3.06C53.56,29.83,55.04,30.53,56.04,31.66z"/>
		<path class="st17" d="M14.48,29.83v7.56l-7-5.15c1.01-1.45,2.68-2.41,4.58-2.41H14.48z"/>
		<path class="st17" d="M48.88,9.36v27.9L32.08,50.37l-17.6-12.98V9.36c0-2.66,2.15-4.81,4.81-4.81h24.78
			C46.73,4.55,48.88,6.7,48.88,9.36z"/>
		<path class="st17" d="M45.24,20.08c0,0.34-0.02,0.68-0.08,1c0.01,0.05,0,0.1-0.02,0.14c-0.07,0.39-0.18,0.78-0.29,1.18
			c-1.49,4.88-6.23,10.17-11.86,15.63c-10.01-9.04-14.14-14.32-14.16-16.95h0.01c-0.06-0.32-0.08-0.66-0.08-1
			c0-3.93,3.19-7.12,7.12-7.12c2.61,0,4.9,1.4,6.13,3.51c1.23-2.1,3.52-3.51,6.13-3.51C42.06,12.96,45.24,16.15,45.24,20.08z"/>
	</g>
</g>
<g id="shadow">
	<path class="st18" d="M51.94,29.83h-3.06V9.36c0-2.66-2.15-4.81-4.81-4.81h-1.3c0.18,11.97,0.36,23.95,0.54,35.92
		c0.44,0.02,1.12-0.01,1.84-0.31c1.14-0.47,1.36-1.18,2.28-1.78c1.1-0.72,2.84-1.02,3.8-0.43c1.05,0.65,0.82,2.16,0.9,5.94
		c0.12,6.19,0.83,6.85,0.36,10.98c-0.23,1.98-0.59,3.57-0.85,4.58h0.29c3.06,0,5.55-2.49,5.55-5.55V35.38
		c0-1.44-0.55-2.74-1.45-3.73C55.04,30.53,53.56,29.83,51.94,29.83z"/>
</g>
<g id="Highligth">
	<path class="st19" d="M12.06,29.83h3.06V9.36c0-2.66,2.15-4.81,4.81-4.81h1.3c-0.18,11.97-0.36,23.95-0.54,35.92
		c-0.44,0.02-1.12-0.01-1.84-0.31c-1.14-0.47-1.36-1.18-2.28-1.78c-1.1-0.72-2.84-1.02-3.8-0.43c-1.05,0.65-0.82,2.16-0.9,5.94
		c-0.12,6.19-0.83,6.85-0.36,10.98c0.23,1.98,0.59,3.57,0.85,4.58h-0.29c-3.06,0-5.55-2.49-5.55-5.55V35.38
		c0-1.44,0.55-2.74,1.45-3.73C8.96,30.53,10.44,29.83,12.06,29.83z"/>
</g>
</svg>
